HIERARCHY
ROOT Hips
{
    OFFSET 0.000000 0.000000 0.000000
    CHANNELS 6 Xposition Yposition Zposition Zrotation Xrotation Yrotation
    JOINT Spine
    {
        OFFSET -0.000000 0.083210 0.000000
        CHANNELS 3 Zrotation Xrotation Yrotation
        JOINT Spine1
        {
            OFFSET -0.000000 0.256334 0.000000
            CHANNELS 3 Zrotation Xrotation Yrotation
            JOINT Neck
            {
                OFFSET -0.000000 0.275576 0.002912
                CHANNELS 3 Zrotation Xrotation Yrotation
                JOINT Head
                {
                    OFFSET -0.000000 0.157287 0.020295
                    CHANNELS 3 Zrotation Xrotation Yrotation
                    End Site
                    {
                        OFFSET -0.000000 0.202951 0.000000
                    }
                }
            }
            JOINT LeftShoulder
            {
                OFFSET 0.041044 0.235234 -0.000041
                CHANNELS 3 Zrotation Xrotation Yrotation
                JOINT LeftArm
                {
                    OFFSET 0.117964 0.000000 0.000000
                    CHANNELS 3 Zrotation Xrotation Yrotation
                    JOINT LeftForeArm
                    {
                        OFFSET 0.291248 0.000000 0.000000
                        CHANNELS 3 Zrotation Xrotation Yrotation
                        JOINT LeftHand
                        {
                            OFFSET 0.245673 0.000000 0.000000
                            CHANNELS 3 Zrotation Xrotation Yrotation
                            End Site
                            {
                                OFFSET 0.152213 0.000000 0.000000
                            }
                        }
                    }
                }
            }
            JOINT RightShoulder
            {
                OFFSET -0.040052 0.235234 -0.000041
                CHANNELS 3 Zrotation Xrotation Yrotation
                JOINT RightArm
                {
                    OFFSET -0.117964 0.000000 0.000000
                    CHANNELS 3 Zrotation Xrotation Yrotation
                    JOINT RightForeArm
                    {
                        OFFSET -0.291248 0.000000 0.000000
                        CHANNELS 3 Zrotation Xrotation Yrotation
                        JOINT RightHand
                        {
                            OFFSET -0.245673 0.000000 0.000000
                            CHANNELS 3 Zrotation Xrotation Yrotation
                            End Site
                            {
                                OFFSET -0.152213 0.000000 0.000000
                            }
                        }
                    }
                }
            }
        }
    }
    JOINT LeftUpLeg
    {
        OFFSET 0.101475 0.000000 0.000000
        CHANNELS 3 Zrotation Xrotation Yrotation
        JOINT LeftLeg
        {
            OFFSET -0.000000 -0.446535 0.000000
            CHANNELS 3 Zrotation Xrotation Yrotation
            JOINT LeftFoot
            {
                OFFSET -0.000000 -0.400037 0.000000
                CHANNELS 3 Zrotation Xrotation Yrotation
                JOINT LeftToeBase
                {
                    OFFSET -0.000000 -0.065959 0.152213
                    CHANNELS 3 Zrotation Xrotation Yrotation
                    End Site
                    {
                        OFFSET -0.000000 0.000000 0.040590
                    }
                }
            }
        }
    }
    JOINT RightUpLeg
    {
        OFFSET -0.101475 0.000000 0.000000
        CHANNELS 3 Zrotation Xrotation Yrotation
        JOINT RightLeg
        {
            OFFSET -0.000000 -0.446535 0.000000
            CHANNELS 3 Zrotation Xrotation Yrotation
            JOINT RightFoot
            {
                OFFSET -0.000000 -0.400037 0.000000
                CHANNELS 3 Zrotation Xrotation Yrotation
                JOINT RightToeBase
                {
                    OFFSET -0.000000 -0.065959 0.152213
                    CHANNELS 3 Zrotation Xrotation Yrotation
                    End Site
                    {
                        OFFSET -0.000000 0.000000 0.040590
                    }
                }
            }
        }
    }
}
MOTION
Frames:    10
Frame Time:    0.008333
0.123740    0.852217    1.522784    -6.915857    -17.976665    11.767321    -3.857437    11.244184    14.241071    5.650967    15.604646    3.841684    -10.887957    30.224918    15.999696    -7.022347    -1.796912    12.959270    5.111989    8.146759    -2.150874    -55.570499    12.164408    16.541361    12.152278    -25.900570    -40.977932    -31.924103    -18.419123    -12.276826    -0.163810    8.026635    24.607773    41.054630    38.442036    23.285099    -5.379998    -1.224554    12.947474    -6.018824    -0.648222    0.658061    22.564821    -23.366196    -0.199568    -5.302747    51.848434    1.697615    -7.271049    -5.966673    0.249044    1.277763    9.646112    -7.549567    -12.191517    0.273069    -5.307132    4.573953    48.868702    -2.672292    16.400644    -14.851133    -17.687996    -0.874289    -8.779593    -8.540613    
0.125199    0.858455    1.517610    -6.661463    -17.581806    13.863000    -3.936435    11.436296    13.795791    5.721051    15.211040    3.699337    -10.775271    30.148071    15.762952    -6.702743    -2.122715    12.713701    5.698570    7.579135    -2.552284    -54.416752    12.417655    16.134279    12.492512    -26.012880    -41.693356    -32.078861    -18.245722    -12.520881    -0.010442    7.962977    24.225353    41.395672    37.493271    22.406363    -5.365613    -1.320098    13.128210    -6.407441    -0.711743    0.169289    21.296661    -23.829716    -2.436634    -5.781620    49.582642    1.899941    -6.934739    -4.613655    0.816739    1.280371    9.804997    -7.504445    -11.147010    -0.294066    -5.293591    4.680946    48.506126    -1.832620    18.438976    -15.002534    -15.628309    -0.938341    -9.732594    -8.475566    
0.126022    0.864761    1.511999    -6.398582    -17.121422    16.092833    -3.999485    11.693490    13.313572    5.682384    14.820110    3.558975    -10.540712    29.956984    15.456380    -6.390193    -2.398399    12.460592    6.301883    7.096544    -2.959243    -53.405773    13.009636    15.526748    13.057647    -26.695383    -42.514717    -32.265236    -18.533445    -12.895764    0.180745    7.776156    23.929523    41.879375    36.581959    21.393684    -5.339420    -1.332906    13.304886    -7.018780    -0.697067    -0.207361    20.151407    -24.274015    -4.079329    -5.826135    47.094952    1.745250    -6.597996    -2.981407    0.851200    1.280619    9.926817    -7.460153    -10.079637    -0.982241    -5.097546    4.899344    48.046410    -1.277567    20.337555    -14.913924    -13.631832    -1.009309    -10.963587    -8.307407    
0.126516    0.871304    1.506143    -6.106339    -16.651695    18.383112    -4.083401    12.083546    12.950881    5.560951    14.314898    3.471928    -9.998140    29.863562    15.016464    -6.196796    -2.679946    12.195995    6.975828    6.534416    -3.580261    -52.534485    13.662744    14.910275    13.858065    -27.623503    -43.386333    -33.284153    -18.788570    -13.586825    0.423192    7.828962    23.614471    42.236149    35.646229    20.444830    -5.384223    -1.387625    13.502174    -7.426322    -0.714284    -0.548161    19.241978    -24.509869    -5.379852    -6.137796    44.176861    1.986193    -6.179667    -1.050936    0.300447    1.357111    10.067647    -7.849147    -9.035525    -1.722837    -4.813847    5.194595    47.478741    -1.094944    21.168892    -14.528577    -11.846782    -1.006404    -11.709360    -7.861458    
0.126700    0.877790    1.499917    -5.858481    -16.105001    20.804815    -3.990476    12.455024    12.370740    5.224571    13.903838    3.339135    -9.568219    29.666590    14.635021    -5.873285    -2.972002    11.941957    7.650090    5.970212    -4.087027    -51.680927    14.274220    14.172199    14.685499    -28.641001    -44.494694    -33.652031    -19.235886    -14.013566    0.597772    8.058045    23.587202    42.477043    34.612259    19.649448    -5.476716    -1.601785    13.731791    -7.805956    -0.882096    -0.876884    18.491270    -24.767263    -6.087206    -6.230602    41.089260    1.916155    -5.842716    0.991327    -0.661218    1.389116    10.060971    -8.036342    -7.998806    -2.635383    -4.611427    5.228004    46.943275    0.136012    21.984781    -14.611459    -11.167582    -0.966669    -11.538599    -7.641191    
0.126585    0.884319    1.493295    -5.558439    -15.537513    23.266439    -3.949045    12.969994    11.828397    4.843472    13.362151    3.224077    -9.023528    29.605076    14.168401    -5.640697    -3.324151    11.640418    8.374234    5.164456    -4.848208    -51.059277    14.847368    13.692979    15.720416    -29.493498    -45.698513    -32.774254    -19.826283    -13.473948    0.708765    8.439105    23.664993    42.688122    33.691147    18.907871    -5.645967    -1.856343    13.908821    -8.136815    -1.091106    -1.070909    17.830454    -24.868862    -6.353184    -6.320066    37.744267    1.835799    -5.909505    2.928037    -1.838873    1.334655    9.994171    -7.747923    -7.117392    -3.554327    -4.076896    5.536437    46.218601    0.478306    22.713341    -14.431664    -10.290450    -0.954169    -11.386817    -7.622696    
0.126081    0.890572    1.486520    -5.371820    -14.873494    25.808834    -3.795525    13.441861    11.262736    4.431878    12.778816    3.107476    -8.378112    29.481251    13.713913    -5.430327    -3.577230    11.403000    9.083403    4.495817    -5.646142    -50.449757    15.470484    12.938838    17.492008    -30.130390    -46.412029    -32.211857    -19.880020    -12.974381    0.726501    8.968483    23.662954    42.797615    32.962753    18.413490    -5.920788    -2.223706    14.048296    -8.311390    -1.399825    -1.294458    17.339376    -25.094858    -6.039742    -6.557113    34.260426    1.273595    -6.419142    4.685257    -2.098532    1.303189    9.674506    -7.688283    -6.321924    -4.593944    -3.725839    5.775428    45.405865    0.709486    23.629150    -14.260821    -9.609983    -0.906513    -11.162236    -7.358537    
0.125649    0.896591    1.479894    -5.176388    -14.255497    28.363127    -3.643080    13.936823    10.692356    4.097076    12.243731    2.975237    -7.884568    29.481476    13.175698    -5.141599    -3.897825    11.000057    9.864535    3.604794    -6.392301    -49.988270    15.838393    12.085017    19.160332    -30.439529    -47.037235    -31.554964    -19.673656    -12.257880    0.654360    9.571993    23.753180    42.842751    32.402409    17.976690    -6.187672    -2.610858    14.111027    -8.637028    -1.739363    -1.397226    16.891685    -25.196438    -5.169170    -6.433415    31.079319    1.005980    -7.763199    6.130822    -2.667361    0.964975    7.862421    -6.273300    -5.676683    -5.541161    -3.446969    5.967467    44.442802    0.756285    24.398825    -13.923853    -9.033069    -0.880552    -11.023092    -7.219681    
0.125590    0.902215    1.473014    -4.983137    -13.582397    31.053854    -3.416681    14.432802    9.979897    3.816516    11.660663    2.791815    -7.502713    29.561951    12.652946    -4.906457    -4.166816    10.572334    10.379015    2.836816    -7.147448    -49.361031    15.995910    11.093348    20.615156    -30.777126    -47.747807    -30.990273    -19.556431    -11.440383    0.495706    10.547034    23.851488    42.471996    32.028927    17.899282    -6.526977    -3.289129    14.148878    -8.834305    -2.358885    -1.558849    16.357763    -25.402056    -4.269817    -6.498063    28.053610    1.525218    -11.271098    6.879460    -3.128744    0.612128    6.866473    -4.216660    -5.280884    -6.451579    -3.256479    6.189981    43.308350    0.433018    24.989948    -13.458406    -8.416878    -0.850424    -11.083764    -6.943061    
0.125545    0.907277    1.466203    -4.858845    -12.834700    33.735104    -3.106350    14.858688    9.198400    3.485229    11.062312    2.592683    -7.246268    29.596430    12.181949    -4.576752    -4.295761    10.150122    10.900451    2.185992    -7.769465    -48.740791    15.891255    9.866661    21.997839    -31.002382    -48.451408    -30.915747    -19.217577    -10.819189    0.265067    11.484261    23.929304    42.149719    31.818340    17.932392    -6.846465    -3.874197    14.124156    -9.101454    -2.894450    -1.661591    15.832897    -25.695881    -3.127914    -6.544476    25.333689    2.967028    -15.496496    7.300683    -3.861817    0.418375    5.135693    -3.212371    -5.090375    -7.350959    -3.339471    6.267534    42.025936    0.619704    25.231216    -13.002405    -8.506837    -0.866127    -11.257837    -6.984107    
